<?xml version="1.0" encoding="utf-8"?>
<!-- Generator: Adobe Illustrator 28.4.1, SVG Export Plug-In . SVG Version: 6.00 Build 0)  -->
<svg version="1.1" id="Calque_1" xmlns="http://www.w3.org/2000/svg" xmlns:xlink="http://www.w3.org/1999/xlink" x="0px" y="0px"
	 viewBox="0 0 177 150" style="enable-background:new 0 0 177 150;" xml:space="preserve">
<style type="text/css">
	.st0{fill:#6977E1;}
	.st1{fill:#FF002B;}
</style>
<g id="adobe-xd-1" transform="translate(35.000000, 23.000000)">
	<path id="Path" class="st0" d="M88.9,105H19.1C8.5,105,0,96.5,0,85.9V19.1C0,8.5,8.5,0,19.1,0h69.8C99.5,0,108,8.5,108,19.1v66.9
		C108,96.5,99.5,105,88.9,105z"/>
	<path id="Path_00000006676509369880470390000008362094103577615254_" class="st1" d="M85.9,101H20.2C11.3,101,4,93.8,4,84.9V22.1
		C4,13.2,11.3,6,20.2,6h65.6c9,0,16.2,7.2,16.2,16.1v62.7C102,93.8,94.8,101,85.9,101L85.9,101z"/>
</g>
</svg>
